<svg width="100" height="100" viewBox="0 0 100 100" fill="none" xmlns="http://www.w3.org/2000/svg">
<g clip-path="url(#clip0_1137_2429)">
<path d="M41.9813 2.8017C46.7501 -0.823802 53.3514 -0.8238 58.1203 2.8017L100.103 34.7194L58.1508 66.8052C53.3698 70.4618 46.7318 70.4618 41.9507 66.8052L-0.00172513 34.7194L41.9813 2.8017Z" fill="#FBA028"/>
<path d="M13.3867 20.0004C13.3867 14.4775 17.8639 10.0004 23.3867 10.0004H77.3867C82.9096 10.0004 87.3867 14.4775 87.3867 20.0004V78.0004H13.3867V20.0004Z" fill="#F9F9FF"/>
<rect opacity="0.3" x="26.0508" y="18.6666" width="28.7309" height="2.65455" rx="1.32727" fill="#686BD1"/>
<rect opacity="0.3" x="26.0508" y="55.8303" width="48.6667" height="2.65455" rx="1.32727" fill="#686BD1"/>
<rect opacity="0.3" x="26.0508" y="64.6787" width="48.6667" height="2.65455" rx="1.32727" fill="#686BD1"/>
<rect opacity="0.3" x="26.0508" y="46.9821" width="28.7309" height="2.65455" rx="1.32727" fill="#686BD1"/>
<rect opacity="0.3" x="57.7148" y="46.9821" width="17.004" height="2.65455" rx="1.32727" fill="#686BD1"/>
<rect opacity="0.3" x="26.0508" y="27.515" width="28.7309" height="17.697" rx="2" fill="#686BD1"/>
<rect opacity="0.3" x="57.7148" y="27.5149" width="17.004" height="17.697" rx="2" fill="#686BD1"/>
<path fill-rule="evenodd" clip-rule="evenodd" d="M0.0692925 34.667H0.0527344V34.6796L0.0692925 34.667ZM0.0527344 34.7597V91.3337C0.0527344 96.1201 3.93293 100 8.7194 100H91.3861C96.1725 100 100.053 96.1201 100.053 91.3337V34.7597L58.1528 66.8053C53.3718 70.4619 46.7337 70.4619 41.9527 66.8053L0.0527344 34.7597ZM100.053 34.6796V34.667H100.036L100.053 34.6796Z" fill="#FEC970"/>
<g style="mix-blend-mode:multiply" opacity="0.3">
<path d="M58.1508 66.8052L100.103 34.7194L96.7174 32.0002L58.315 60.733C53.6063 64.256 47.1455 64.2781 42.4128 60.7873L3.38411 32.0002L-0.00172544 34.7194L41.9507 66.8052C46.7318 70.4618 53.3698 70.4618 58.1508 66.8052Z" fill="#A4A4CB"/>
</g>
<rect x="63.3867" y="74.9963" width="2" height="32.8272" rx="1" transform="rotate(-56.2827 63.3867 74.9963)" fill="#FBA028"/>
<rect x="37.1504" y="73.3337" width="2" height="32.8272" rx="1" transform="rotate(60 37.1504 73.3337)" fill="#FBA028"/>
</g>
<defs>
<clipPath id="clip0_1137_2429">
<rect width="100" height="100" fill="white"/>
</clipPath>
</defs>
</svg>
